{
  "accessors": [
    {
      "bufferView": 2,
      "componentType": 5126,
      "count": 2166,
      "max": [
        0.9843519926071167,
        -0.29094401001930237,
        0.4697740077972412
      ],
      "min": [
        0.3252849876880646,
        -0.947625994682312,
        -0.19491100311279297
      ],
      "type": "VEC3"
    },
    {
      "bufferView": 2,
      "byteOffset": 25992,
      "componentType": 5126,
      "count": 2166,
      "max": [
        0.9989913105964661,
        0.9981451034545898,
        0.999711811542511
      ],
      "min": [
        -0.9955653548240662,
        -0.9991618990898132,
        -0.9999643564224243
      ],
      "type": "VEC3"
    },
    {
      "bufferView": 1,
      "componentType": 5126,
      "count": 2166,
      "max": [
        0.8027340173721313,
        0.9316409826278687
      ],
      "min": [
        0.2628970146179199,
        0.22460900247097015
      ],
      "type": "VEC2"
    },
    {
      "bufferView": 0,
      "componentType": 5125,
      "count": 2166,
      "type": "SCALAR"
    },
    {
      "bufferView": 2,
      "byteOffset": 51984,
      "componentType": 5126,
      "count": 3006,
      "max": [
        -0.07484699785709381,
        -0.6881499886512756,
        0.6555879712104797
      ],
      "min": [
        -1.0431640148162842,
        -1.5253829956054688,
        -0.21931900084018707
      ],
      "type": "VEC3"
    },
    {
      "bufferView": 2,
      "byteOffset": 88056,
      "componentType": 5126,
      "count": 3006,
      "max": [
        0.997255802154541,
        0.994885265827179,
        0.9997096657752991
      ],
      "min": [
        -0.9985922574996948,
        -0.9992345571517944,
        -0.9999871253967285
      ],
      "type": "VEC3"
    },
    {
      "bufferView": 1,
      "byteOffset": 17328,
      "componentType": 5126,
      "count": 3006,
      "max": [
        0.9853249788284302,
        0.5259180068969727
      ],
      "min": [
        0.6734709739685059,
        0.2177630066871643
      ],
      "type": "VEC2"
    },
    {
      "bufferView": 0,
      "byteOffset": 8664,
      "componentType": 5125,
      "count": 3006,
      "type": "SCALAR"
    },
    {
      "bufferView": 2,
      "byteOffset": 124128,
      "componentType": 5126,
      "count": 2856,
      "max": [
        -0.4430150091648102,
        0.6450369954109192,
        0.5628079771995544
      ],
      "min": [
        -1.266077995300293,
        -0.8879730105400085,
        -0.2437860071659088
      ],
      "type": "VEC3"
    },
    {
      "bufferView": 2,
      "byteOffset": 158400,
      "componentType": 5126,
      "count": 2856,
      "max": [
        0.9999912977218628,
        0.9948232173919678,
        0.9991019368171692
      ],
      "min": [
        -0.9995148777961731,
        -0.9991071820259094,
        -0.9901816844940186
      ],
      "type": "VEC3"
    },
    {
      "bufferView": 1,
      "byteOffset": 41376,
      "componentType": 5126,
      "count": 2856,
      "max": [
        0.7598620057106018,
        0.43044498562812805
      ],
      "min": [
        0.6796180009841919,
        0.2083590030670166
      ],
      "type": "VEC2"
    },
    {
      "bufferView": 0,
      "byteOffset": 20688,
      "componentType": 5125,
      "count": 2976,
      "type": "SCALAR"
    },
    {
      "bufferView": 2,
      "byteOffset": 192672,
      "componentType": 5126,
      "count": 2524,
      "max": [
        0.24189899861812592,
        -1.7417689561843872,
        0.2341269999742508
      ],
      "min": [
        -0.20528000593185425,
        -2.040585994720459,
        -0.20940299332141876
      ],
      "type": "VEC3"
    },
    {
      "bufferView": 2,
      "byteOffset": 222960,
      "componentType": 5126,
      "count": 2524,
      "max": [
        0.9976284503936768,
        0.9979223608970642,
        0.9998205304145813
      ],
      "min": [
        -0.9999494552612305,
        -0.9999730587005615,
        -0.9977089166641235
      ],
      "type": "VEC3"
    },
    {
      "bufferView": 1,
      "byteOffset": 64224,
      "componentType": 5126,
      "count": 2524,
      "max": [
        0.8968449831008911,
        0.9423750042915344
      ],
      "min": [
        0.2504589855670929,
        0.4531410038471222
      ],
      "type": "VEC2"
    },
    {
      "bufferView": 0,
      "byteOffset": 32592,
      "componentType": 5125,
      "count": 2616,
      "type": "SCALAR"
    },
    {
      "bufferView": 2,
      "byteOffset": 253248,
      "componentType": 5126,
      "count": 2460,
      "max": [
        1.1228129863739014,
        -1.1448450088500977,
        0.2907769978046417
      ],
      "min": [
        0.320609986782074,
        -2.0011849403381348,
        -0.22466200590133667
      ],
      "type": "VEC3"
    },
    {
      "bufferView": 2,
      "byteOffset": 282768,
      "componentType": 5126,
      "count": 2460,
      "max": [
        0.997083842754364,
        0.9992452263832092,
        0.9980428814888
      ],
      "min": [
        -0.9970816969871521,
        -0.99991774559021,
        -0.9997938275337219
      ],
      "type": "VEC3"
    },
    {
      "bufferView": 1,
      "byteOffset": 84416,
      "componentType": 5126,
      "count": 2460,
      "max": [
        0.7498250007629395,
        0.47056299448013306
      ],
      "min": [
        0.01810400001704693,
        0.21653300523757935
      ],
      "type": "VEC2"
    },
    {
      "bufferView": 0,
      "byteOffset": 43056,
      "componentType": 5125,
      "count": 2724,
      "type": "SCALAR"
    },
    {
      "bufferView": 2,
      "byteOffset": 312288,
      "componentType": 5126,
      "count": 1979,
      "max": [
        0.31049901247024536,
        -0.280007004737854,
        0.7344380021095276
      ],
      "min": [
        -0.19412299990653992,
        -0.7843970060348511,
        -0.2444400042295456
      ],
      "type": "VEC3"
    },
    {
      "bufferView": 2,
      "byteOffset": 336036,
      "componentType": 5126,
      "count": 1979,
      "max": [
        0.9986341595649719,
        0.9975872039794922,
        0.9989299774169922
      ],
      "min": [
        -0.9932023882865906,
        -0.9964551329612732,
        -0.9999932050704956
      ],
      "type": "VEC3"
    },
    {
      "bufferView": 1,
      "byteOffset": 104096,
      "componentType": 5126,
      "count": 1979,
      "max": [
        0.7511109709739685,
        0.4807179868221283
      ],
      "min": [
        0.6269540190696716,
        0.21749700605869293
      ],
      "type": "VEC2"
    },
    {
      "bufferView": 0,
      "byteOffset": 53952,
      "componentType": 5125,
      "count": 1980,
      "type": "SCALAR"
    },
    {
      "bufferView": 2,
      "byteOffset": 359784,
      "componentType": 5126,
      "count": 2412,
      "max": [
        0.8627430200576782,
        1.2281190156936646,
        2.1977429389953613
      ],
      "min": [
        -0.7721729874610901,
        -0.2392989993095398,
        -0.2220270037651062
      ],
      "type": "VEC3"
    },
    {
      "bufferView": 2,
      "byteOffset": 388728,
      "componentType": 5126,
      "count": 2412,
      "max": [
        0.9986287951469421,
        0.9999154806137085,
        0.999996542930603
      ],
      "min": [
        -0.9985653758049011,
        -0.9999315738677979,
        -0.9999995231628418
      ],
      "type": "VEC3"
    },
    {
      "bufferView": 1,
      "byteOffset": 119928,
      "componentType": 5126,
      "count": 2412,
      "max": [
        0.8984670042991638,
        0.5205370187759399
      ],
      "min": [
        0.15040700137615204,
        0.30758801102638245
      ],
      "type": "VEC2"
    },
    {
      "bufferView": 0,
      "byteOffset": 61872,
      "componentType": 5125,
      "count": 3168,
      "type": "SCALAR"
    },
    {
      "bufferView": 2,
      "byteOffset": 417672,
      "componentType": 5126,
      "count": 1862,
      "max": [
        2.313070058822632,
        1.3627309799194336,
        0.029411999508738518
      ],
      "min": [
        -1.5305589437484741,
        -2.4759879112243652,
        -0.3139140009880066
      ],
      "type": "VEC3"
    },
    {
      "bufferView": 2,
      "byteOffset": 440016,
      "componentType": 5126,
      "count": 1862,
      "max": [
        0.9775417447090149,
        0.968100905418396,
        1.0
      ],
      "min": [
        -0.9775417447090149,
        -0.9673637747764587,
        -1.0
      ],
      "type": "VEC3"
    },
    {
      "bufferView": 1,
      "byteOffset": 139224,
      "componentType": 5126,
      "count": 1862,
      "max": [
        0.17554999887943268,
        0.42532700300216675
      ],
      "min": [
        0.1557220071554184,
        0.4058609902858734
      ],
      "type": "VEC2"
    },
    {
      "bufferView": 0,
      "byteOffset": 74544,
      "componentType": 5125,
      "count": 1872,
      "type": "SCALAR"
    },
    {
      "bufferView": 2,
      "byteOffset": 462360,
      "componentType": 5126,
      "count": 2354,
      "max": [
        1.5854320526123047,
        -0.6983810067176819,
        0.2829279899597168
      ],
      "min": [
        1.000108003616333,
        -1.6824100017547607,
        -0.2182600051164627
      ],
      "type": "VEC3"
    },
    {
      "bufferView": 2,
      "byteOffset": 490608,
      "componentType": 5126,
      "count": 2354,
      "max": [
        0.9982194900512695,
        0.9850163459777832,
        0.987038254737854
      ],
      "min": [
        -0.996917724609375,
        -0.9947425723075867,
        -0.9983266592025757
      ],
      "type": "VEC3"
    },
    {
      "bufferView": 1,
      "byteOffset": 154120,
      "componentType": 5126,
      "count": 2354,
      "max": [
        0.7554659843444824,
        0.9895179867744446
      ],
      "min": [
        0.0519540011882782,
        0.35584500432014465
      ],
      "type": "VEC2"
    },
    {
      "bufferView": 0,
      "byteOffset": 82032,
      "componentType": 5125,
      "count": 2412,
      "type": "SCALAR"
    },
    {
      "bufferView": 2,
      "byteOffset": 518856,
      "componentType": 5126,
      "count": 1296,
      "max": [
        2.1783111095428467,
        0.9019259810447693,
        1.161538004875183
      ],
      "min": [
        0.7337939739227295,
        -0.8993890285491943,
        -0.28659099340438843
      ],
      "type": "VEC3"
    },
    {
      "bufferView": 2,
      "byteOffset": 534408,
      "componentType": 5126,
      "count": 1296,
      "max": [
        0.9902985692024231,
        0.9914540648460388,
        0.9936642646789551
      ],
      "min": [
        -0.9992271661758423,
        -0.9988652467727661,
        -0.9897786378860474
      ],
      "type": "VEC3"
    },
    {
      "bufferView": 1,
      "byteOffset": 172952,
      "componentType": 5126,
      "count": 1296,
      "max": [
        0.7581409811973572,
        0.5257970094680786
      ],
      "min": [
        0.672448992729187,
        0.21818900108337402
      ],
      "type": "VEC2"
    },
    {
      "bufferView": 0,
      "byteOffset": 91680,
      "componentType": 5125,
      "count": 1296,
      "type": "SCALAR"
    },
    {
      "bufferView": 2,
      "byteOffset": 549960,
      "componentType": 5126,
      "count": 2696,
      "max": [
        0.5782470107078552,
        -0.8989009857177734,
        0.3226419985294342
      ],
      "min": [
        -0.2927800118923187,
        -1.589851975440979,
        -0.21763600409030914
      ],
      "type": "VEC3"
    },
    {
      "bufferView": 2,
      "byteOffset": 582312,
      "componentType": 5126,
      "count": 2696,
      "max": [
        0.9991249442100525,
        0.9987992644309998,
        0.9988076090812683
      ],
      "min": [
        -0.9997982382774353,
        -0.9992601871490479,
        -0.9999934434890747
      ],
      "type": "VEC3"
    },
    {
      "bufferView": 1,
      "byteOffset": 183320,
      "componentType": 5126,
      "count": 2696,
      "max": [
        0.9945970177650452,
        0.4752799868583679
      ],
      "min": [
        0.8654500246047974,
        0.35237300395965576
      ],
      "type": "VEC2"
    },
    {
      "bufferView": 0,
      "byteOffset": 96864,
      "componentType": 5125,
      "count": 2880,
      "type": "SCALAR"
    }
  ],
  "asset": {
    "extras": {
      "author": "EdwinRC (https://sketchfab.com/Edwin3D)",
      "license": "CC-BY-4.0 (http://creativecommons.org/licenses/by/4.0/)",
      "source": "https://sketchfab.com/3d-models/low-poly-fruits-v2-7032a06ecb9b4370bdae87f656012356",
      "title": "Low Poly Fruits v2"
    },
    "generator": "Sketchfab-12.65.0",
    "version": "2.0"
  },
  "bufferViews": [
    {
      "buffer": 0,
      "byteLength": 108384,
      "name": "floatBufferViews",
      "target": 34963
    },
    {
      "buffer": 0,
      "byteLength": 204888,
      "byteOffset": 108384,
      "byteStride": 8,
      "name": "floatBufferViews",
      "target": 34962
    },
    {
      "buffer": 0,
      "byteLength": 614664,
      "byteOffset": 313272,
      "byteStride": 12,
      "name": "floatBufferViews",
      "target": 34962
    }
  ],
  "buffers": [
    {
      "byteLength": 927936,
      "uri": "scene.bin"
    }
  ],
  "images": [
    {
      "uri": "textures/Apple_baseColor.png"
    }
  ],
  "materials": [
    {
      "doubleSided": true,
      "name": "Apple",
      "pbrMetallicRoughness": {
        "baseColorTexture": {
          "index": 0
        },
        "metallicFactor": 0.0,
        "roughnessFactor": 0.2177972561
      }
    },
    {
      "doubleSided": true,
      "name": "Avocado",
      "pbrMetallicRoughness": {
        "baseColorTexture": {
          "index": 0
        },
        "metallicFactor": 0.0,
        "roughnessFactor": 0.40072408540000004
      }
    },
    {
      "doubleSided": true,
      "name": "Bananas",
      "pbrMetallicRoughness": {
        "baseColorTexture": {
          "index": 0
        },
        "metallicFactor": 0.0,
        "roughnessFactor": 0.6141387195
      }
    },
    {
      "doubleSided": true,
      "name": "Cherries",
      "pbrMetallicRoughness": {
        "baseColorTexture": {
          "index": 0
        },
        "metallicFactor": 0.0,
        "roughnessFactor": 0.3946265244
      }
    },
    {
      "doubleSided": true,
      "name": "Coconut",
      "pbrMetallicRoughness": {
        "baseColorTexture": {
          "index": 0
        },
        "metallicFactor": 0.0,
        "roughnessFactor": 0.736089939
      }
    },
    {
      "doubleSided": true,
      "name": "Orange",
      "pbrMetallicRoughness": {
        "baseColorTexture": {
          "index": 0
        },
        "metallicFactor": 0.0,
        "roughnessFactor": 0.5226753049
      }
    },
    {
      "doubleSided": true,
      "name": "Pear",
      "pbrMetallicRoughness": {
        "baseColorTexture": {
          "index": 0
        },
        "metallicFactor": 0.0,
        "roughnessFactor": 0.4921875
      }
    },
    {
      "doubleSided": true,
      "name": "PineApple",
      "pbrMetallicRoughness": {
        "baseColorTexture": {
          "index": 0
        },
        "metallicFactor": 0.0,
        "roughnessFactor": 0.843491542
      }
    },
    {
      "doubleSided": true,
      "name": "Tray",
      "pbrMetallicRoughness": {
        "baseColorTexture": {
          "index": 0
        },
        "metallicFactor": 0.0,
        "roughnessFactor": 0.5531631098
      }
    },
    {
      "doubleSided": true,
      "name": "W-Slice",
      "pbrMetallicRoughness": {
        "baseColorTexture": {
          "index": 0
        },
        "metallicFactor": 0.0,
        "roughnessFactor": 0.4129192073
      }
    },
    {
      "doubleSided": true,
      "name": "Watermelon",
      "pbrMetallicRoughness": {
        "baseColorTexture": {
          "index": 0
        },
        "metallicFactor": 0.0,
        "roughnessFactor": 0.5348704268
      }
    }
  ],
  "meshes": [
    {
      "name": "Object_0",
      "primitives": [
        {
          "attributes": {
            "NORMAL": 1,
            "POSITION": 0,
            "TEXCOORD_0": 2
          },
          "indices": 3,
          "material": 0,
          "mode": 4
        }
      ]
    },
    {
      "name": "Object_1",
      "primitives": [
        {
          "attributes": {
            "NORMAL": 5,
            "POSITION": 4,
            "TEXCOORD_0": 6
          },
          "indices": 7,
          "material": 1,
          "mode": 4
        }
      ]
    },
    {
      "name": "Object_2",
      "primitives": [
        {
          "attributes": {
            "NORMAL": 9,
            "POSITION": 8,
            "TEXCOORD_0": 10
          },
          "indices": 11,
          "material": 2,
          "mode": 4
        }
      ]
    },
    {
      "name": "Object_3",
      "primitives": [
        {
          "attributes": {
            "NORMAL": 13,
            "POSITION": 12,
            "TEXCOORD_0": 14
          },
          "indices": 15,
          "material": 3,
          "mode": 4
        }
      ]
    },
    {
      "name": "Object_4",
      "primitives": [
        {
          "attributes": {
            "NORMAL": 17,
            "POSITION": 16,
            "TEXCOORD_0": 18
          },
          "indices": 19,
          "material": 4,
          "mode": 4
        }
      ]
    },
    {
      "name": "Object_5",
      "primitives": [
        {
          "attributes": {
            "NORMAL": 21,
            "POSITION": 20,
            "TEXCOORD_0": 22
          },
          "indices": 23,
          "material": 6,
          "mode": 4
        }
      ]
    },
    {
      "name": "Object_6",
      "primitives": [
        {
          "attributes": {
            "NORMAL": 25,
            "POSITION": 24,
            "TEXCOORD_0": 26
          },
          "indices": 27,
          "material": 7,
          "mode": 4
        }
      ]
    },
    {
      "name": "Object_7",
      "primitives": [
        {
          "attributes": {
            "NORMAL": 29,
            "POSITION": 28,
            "TEXCOORD_0": 30
          },
          "indices": 31,
          "material": 8,
          "mode": 4
        }
      ]
    },
    {
      "name": "Object_8",
      "primitives": [
        {
          "attributes": {
            "NORMAL": 33,
            "POSITION": 32,
            "TEXCOORD_0": 34
          },
          "indices": 35,
          "material": 9,
          "mode": 4
        }
      ]
    },
    {
      "name": "Object_9",
      "primitives": [
        {
          "attributes": {
            "NORMAL": 37,
            "POSITION": 36,
            "TEXCOORD_0": 38
          },
          "indices": 39,
          "material": 10,
          "mode": 4
        }
      ]
    },
    {
      "name": "Object_10",
      "primitives": [
        {
          "attributes": {
            "NORMAL": 41,
            "POSITION": 40,
            "TEXCOORD_0": 42
          },
          "indices": 43,
          "material": 5,
          "mode": 4
        }
      ]
    }
  ],
  "nodes": [
    {
      "children": [
        1
      ],
      "matrix": [
        1.0,
        0.0,
        0.0,
        0.0,
        0.0,
        2.220446049250313e-16,
        -1.0,
        0.0,
        0.0,
        1.0,
        2.220446049250313e-16,
        0.0,
        0.0,
        0.0,
        0.0,
        1.0
      ],
      "name": "Sketchfab_model"
    },
    {
      "children": [
        2,
        3,
        4,
        5,
        6,
        7,
        8,
        9,
        10,
        11,
        12
      ],
      "name": "Low Poly Fruits v2 By EdwinRC.obj.cleaner.materialmerger.gles"
    },
    {
      "mesh": 0,
      "name": "Object_2"
    },
    {
      "mesh": 1,
      "name": "Object_3"
    },
    {
      "mesh": 2,
      "name": "Object_4"
    },
    {
      "mesh": 3,
      "name": "Object_5"
    },
    {
      "mesh": 4,
      "name": "Object_6"
    },
    {
      "mesh": 5,
      "name": "Object_7"
    },
    {
      "mesh": 6,
      "name": "Object_8"
    },
    {
      "mesh": 7,
      "name": "Object_9"
    },
    {
      "mesh": 8,
      "name": "Object_10"
    },
    {
      "mesh": 9,
      "name": "Object_11"
    },
    {
      "mesh": 10,
      "name": "Object_12"
    }
  ],
  "samplers": [
    {
      "magFilter": 9729,
      "minFilter": 9987,
      "wrapS": 10497,
      "wrapT": 10497
    }
  ],
  "scene": 0,
  "scenes": [
    {
      "name": "Sketchfab_Scene",
      "nodes": [
        0
      ]
    }
  ],
  "textures": [
    {
      "sampler": 0,
      "source": 0
    }
  ]
}
